<?xml version="1.0" encoding="utf-8"?>
<!-- Generator: Adobe Illustrator 22.1.0, SVG Export Plug-In . SVG Version: 6.00 Build 0)  -->
<svg version="1.1" id="Layer_1" xmlns="http://www.w3.org/2000/svg" xmlns:xlink="http://www.w3.org/1999/xlink" x="0px" y="0px"
	 viewBox="0 0 1920 607" style="enable-background:new 0 0 1920 607;" xml:space="preserve">
<style type="text/css">
	.st0{fill:url(#SVGID_1_);}
	.st1{fill:url(#SVGID_2_);}
	.st2{fill:url(#SVGID_3_);}
	.st3{fill:url(#SVGID_4_);}
</style>
<linearGradient id="SVGID_1_" gradientUnits="userSpaceOnUse" x1="1145.5242" y1="175.7774" x2="197.1719" y2="425.4915">
	<stop  offset="0" style="stop-color:#FF483A"/>
	<stop  offset="0.3103" style="stop-color:#FF723A"/>
	<stop  offset="0.4516" style="stop-color:#FF7C3A"/>
	<stop  offset="0.6884" style="stop-color:#FF963C"/>
	<stop  offset="0.9901" style="stop-color:#FFBF3E"/>
	<stop  offset="1" style="stop-color:#FFC13E"/>
</linearGradient>
<path class="st0" d="M594.8-0.6H126.4l-24.6,332.9C92.2,461,188.9,572.2,326.9,581.2l399.6,26.3l0,0l390-0.2
	c335.3-0.2,607-272,607-607.3v0L594.8-0.6"/>
<linearGradient id="SVGID_2_" gradientUnits="userSpaceOnUse" x1="1053.4387" y1="-33.2961" x2="946.7953" y2="93.7965">
	<stop  offset="0.2488" style="stop-color:#FF2A76"/>
	<stop  offset="1" style="stop-color:#FF723A"/>
</linearGradient>
<line class="st1" x1="1325.5" y1="0" x2="725.5" y2="0"/>
<linearGradient id="SVGID_3_" gradientUnits="userSpaceOnUse" x1="1129.8855" y1="-357.2486" x2="680.8658" y2="661.7269">
	<stop  offset="0" style="stop-color:#702AC7"/>
	<stop  offset="0.5232" style="stop-color:#FF2A76"/>
	<stop  offset="0.9739" style="stop-color:#FF723A"/>
</linearGradient>
<path class="st2" d="M726.5,0H1.5l75.2,360.8C103,487.1,226.5,567.3,352.6,540l373.9-81.1l994-212.3C1836.8,221.8,1920,119,1920,0v0
	H725.5"/>
<g transform="translate(-587.73 -.689)">
	<g>
		<linearGradient id="SVGID_4_" gradientUnits="userSpaceOnUse" x1="1679.7754" y1="-107.2264" x2="756.5714" y2="360.7279">
			<stop  offset="5.911330e-02" style="stop-color:#804BEF"/>
			<stop  offset="0.1157" style="stop-color:#8B48E7"/>
			<stop  offset="0.4067" style="stop-color:#BC3BBF"/>
			<stop  offset="0.6615" style="stop-color:#E131A2"/>
			<stop  offset="0.8679" style="stop-color:#F72B90"/>
			<stop  offset="1" style="stop-color:#FF298A"/>
		</linearGradient>
		<path class="st3" d="M1952.4,0.7h-639.1H744.5l121.3,303.9c47.8,119.8,183.4,177.4,302.8,128.5l144.5-59.1l876-373.4H1952.4z"/>
	</g>
</g>
</svg>
