<svg xmlns="http://www.w3.org/2000/svg" xmlns:xlink="http://www.w3.org/1999/xlink" width="353" height="593" viewBox="0 0 353 593">
  <defs>
    <path id="img-browser-mobile-b" d="M9.44783987,0 L289.55216,0 C294.770058,-9.58512291e-16 299,4.22994199 299,9.44783987 L299,533.0951 C299,536.356286 296.356286,539 293.0951,539 L5.90489992,539 C2.64371375,539 2.17573696e-15,536.356286 1.77635684e-15,533.0951 L0,9.44783987 C-6.39008194e-16,4.22994199 4.22994199,1.5169367e-14 9.44783987,1.42108547e-14 Z"/>
    <filter id="img-browser-mobile-a" width="127.1%" height="115%" x="-13.5%" y="-7.5%" filterUnits="objectBoundingBox">
      <feMorphology in="SourceAlpha" operator="dilate" radius="2" result="shadowSpreadOuter1"/>
      <feOffset in="shadowSpreadOuter1" result="shadowOffsetOuter1"/>
      <feGaussianBlur in="shadowOffsetOuter1" result="shadowBlurOuter1" stdDeviation="11.5"/>
      <feColorMatrix in="shadowBlurOuter1" values="0 0 0 0 0   0 0 0 0 0   0 0 0 0 0  0 0 0 0.25 0"/>
    </filter>
    <rect id="img-browser-mobile-d" width="116.683" height="72.794" x="0" y="0" rx="3.422"/>
    <filter id="img-browser-mobile-c" width="133.4%" height="153.6%" x="-16.7%" y="-26.8%" filterUnits="objectBoundingBox">
      <feMorphology in="SourceAlpha" operator="dilate" radius="1" result="shadowSpreadOuter1"/>
      <feOffset in="shadowSpreadOuter1" result="shadowOffsetOuter1"/>
      <feGaussianBlur in="shadowOffsetOuter1" result="shadowBlurOuter1" stdDeviation="5.5"/>
      <feColorMatrix in="shadowBlurOuter1" values="0 0 0 0 0   0 0 0 0 0   0 0 0 0 0  0 0 0 0.07 0"/>
    </filter>
    <rect id="img-browser-mobile-f" width="116.683" height="72.794" x="0" y="0" rx="3.422"/>
    <filter id="img-browser-mobile-e" width="133.4%" height="153.6%" x="-16.7%" y="-26.8%" filterUnits="objectBoundingBox">
      <feMorphology in="SourceAlpha" operator="dilate" radius="1" result="shadowSpreadOuter1"/>
      <feOffset in="shadowSpreadOuter1" result="shadowOffsetOuter1"/>
      <feGaussianBlur in="shadowOffsetOuter1" result="shadowBlurOuter1" stdDeviation="5.5"/>
      <feColorMatrix in="shadowBlurOuter1" values="0 0 0 0 0   0 0 0 0 0   0 0 0 0 0  0 0 0 0.07 0"/>
    </filter>
    <rect id="img-browser-mobile-h" width="72.71" height="72.794" x="0" y="0" rx="3.422"/>
    <filter id="img-browser-mobile-g" width="153.6%" height="153.6%" x="-26.8%" y="-26.8%" filterUnits="objectBoundingBox">
      <feMorphology in="SourceAlpha" operator="dilate" radius="1" result="shadowSpreadOuter1"/>
      <feOffset in="shadowSpreadOuter1" result="shadowOffsetOuter1"/>
      <feGaussianBlur in="shadowOffsetOuter1" result="shadowBlurOuter1" stdDeviation="5.5"/>
      <feColorMatrix in="shadowBlurOuter1" values="0 0 0 0 0   0 0 0 0 0   0 0 0 0 0  0 0 0 0.07 0"/>
    </filter>
    <rect id="img-browser-mobile-j" width="72.71" height="72.794" x="0" y="0" rx="3.422"/>
    <filter id="img-browser-mobile-i" width="153.6%" height="153.6%" x="-26.8%" y="-26.8%" filterUnits="objectBoundingBox">
      <feMorphology in="SourceAlpha" operator="dilate" radius="1" result="shadowSpreadOuter1"/>
      <feOffset in="shadowSpreadOuter1" result="shadowOffsetOuter1"/>
      <feGaussianBlur in="shadowOffsetOuter1" result="shadowBlurOuter1" stdDeviation="5.5"/>
      <feColorMatrix in="shadowBlurOuter1" values="0 0 0 0 0   0 0 0 0 0   0 0 0 0 0  0 0 0 0.07 0"/>
    </filter>
    <rect id="img-browser-mobile-l" width="72.71" height="72.794" x="0" y="0" rx="3.422"/>
    <filter id="img-browser-mobile-k" width="153.6%" height="153.6%" x="-26.8%" y="-26.8%" filterUnits="objectBoundingBox">
      <feMorphology in="SourceAlpha" operator="dilate" radius="1" result="shadowSpreadOuter1"/>
      <feOffset in="shadowSpreadOuter1" result="shadowOffsetOuter1"/>
      <feGaussianBlur in="shadowOffsetOuter1" result="shadowBlurOuter1" stdDeviation="5.5"/>
      <feColorMatrix in="shadowBlurOuter1" values="0 0 0 0 0   0 0 0 0 0   0 0 0 0 0  0 0 0 0.07 0"/>
    </filter>
    <polygon id="img-browser-mobile-m" points="0 0 31.567 0 31.567 30.433 0 30.433"/>
    <rect id="img-browser-mobile-p" width="72.71" height="72.794" x="0" y="0" rx="3.422"/>
    <filter id="img-browser-mobile-o" width="153.6%" height="153.6%" x="-26.8%" y="-26.8%" filterUnits="objectBoundingBox">
      <feMorphology in="SourceAlpha" operator="dilate" radius="1" result="shadowSpreadOuter1"/>
      <feOffset in="shadowSpreadOuter1" result="shadowOffsetOuter1"/>
      <feGaussianBlur in="shadowOffsetOuter1" result="shadowBlurOuter1" stdDeviation="5.5"/>
      <feColorMatrix in="shadowBlurOuter1" values="0 0 0 0 0   0 0 0 0 0   0 0 0 0 0  0 0 0 0.07 0"/>
    </filter>
    <rect id="img-browser-mobile-r" width="72.71" height="72.794" x="0" y="0" rx="3.422"/>
    <filter id="img-browser-mobile-q" width="153.6%" height="153.6%" x="-26.8%" y="-26.8%" filterUnits="objectBoundingBox">
      <feMorphology in="SourceAlpha" operator="dilate" radius="1" result="shadowSpreadOuter1"/>
      <feOffset in="shadowSpreadOuter1" result="shadowOffsetOuter1"/>
      <feGaussianBlur in="shadowOffsetOuter1" result="shadowBlurOuter1" stdDeviation="5.5"/>
      <feColorMatrix in="shadowBlurOuter1" values="0 0 0 0 0   0 0 0 0 0   0 0 0 0 0  0 0 0 0.07 0"/>
    </filter>
    <rect id="img-browser-mobile-t" width="72.71" height="72.794" x="0" y="0" rx="3.422"/>
    <filter id="img-browser-mobile-s" width="153.6%" height="153.6%" x="-26.8%" y="-26.8%" filterUnits="objectBoundingBox">
      <feMorphology in="SourceAlpha" operator="dilate" radius="1" result="shadowSpreadOuter1"/>
      <feOffset in="shadowSpreadOuter1" result="shadowOffsetOuter1"/>
      <feGaussianBlur in="shadowOffsetOuter1" result="shadowBlurOuter1" stdDeviation="5.5"/>
      <feColorMatrix in="shadowBlurOuter1" values="0 0 0 0 0   0 0 0 0 0   0 0 0 0 0  0 0 0 0.07 0"/>
    </filter>
    <path id="img-browser-mobile-u" d="M2.36195997,0 L216.418528,-4.4408921e-16 C217.723002,-6.83717283e-16 218.780488,1.0574855 218.780488,2.36195997 L218.780488,26.7731752 C218.780488,28.0776496 217.723002,29.1351351 216.418528,29.1351351 L2.36195997,29.1351351 C1.0574855,29.1351351 -9.20456909e-15,28.0776496 -1.11022302e-14,26.7731752 L0,2.36195997 C-1.59752048e-16,1.0574855 1.0574855,2.01598491e-15 2.36195997,1.77635684e-15 Z"/>
  </defs>
  <g fill="none" fill-rule="evenodd" transform="translate(27 27)">
    <use fill="#000" filter="url(#img-browser-mobile-a)" xlink:href="#img-browser-mobile-b"/>
    <use fill="#F9F9FA" xlink:href="#img-browser-mobile-b"/>
    <g transform="translate(18.961 323.443)">
      <use fill="#000" filter="url(#img-browser-mobile-c)" xlink:href="#img-browser-mobile-d"/>
      <use fill="#FFF" xlink:href="#img-browser-mobile-d"/>
      <path fill="#888" fill-rule="nonzero" d="M52.3311988,49.2015558 C64.3710537,49.2015558 70.9563463,39.2387963 70.9563463,30.5991362 C70.9563463,30.3161612 70.9563463,30.0344609 70.937203,29.7540352 C72.2183122,28.8285168 73.3241872,27.6825554 74.2030488,26.3698071 C73.008353,26.8985393 71.7410035,27.2452816 70.4433061,27.3984595 C71.8098105,26.5813782 72.8325467,25.296251 73.3211811,23.782243 C72.0362291,24.5437966 70.6304587,25.0805017 69.1645341,25.3691973 C67.1354508,23.2142462 63.9112565,22.6868143 61.2998943,24.0826552 C58.6885321,25.4784962 57.3394351,28.450471 58.0090994,31.3320669 C52.7458371,31.06853 47.8420657,28.585582 44.5181829,24.5011524 C42.7807667,27.4885077 43.6682053,31.3102186 46.5448195,33.2287642 C45.5030941,33.197927 44.4840815,32.9172536 43.5737805,32.4104311 C43.5737805,32.437199 43.5737805,32.4652416 43.5737805,32.4932842 C43.5746332,35.6054904 45.7711133,38.2860312 48.8254238,38.9022855 C47.8617116,39.1647895 46.8505769,39.2031623 45.8696994,39.0144558 C46.7272524,41.677764 49.1847747,43.5022658 51.9853433,43.5548024 C49.6673905,45.3742959 46.803968,46.3620262 43.855825,46.3590592 C43.3350044,46.3580605 42.8146903,46.3265648 42.297561,46.2647342 C45.2911073,48.1834532 48.7742645,49.201195 52.3311988,49.1964571"/>
      <rect width="128.351" height="5.827" x="132.727" y="30.548" fill="#D6D6D6" fill-rule="nonzero" rx="1.181"/>
      <rect width="128.351" height="5.827" x="132.727" y="42.202" fill="#D6D6D6" fill-rule="nonzero" rx="1.181"/>
      <rect width="99.18" height="5.827" x="132.727" y="53.857" fill="#D6D6D6" fill-rule="nonzero" rx="1.181"/>
      <rect width="100.639" height="7.284" x="132.727" y="11.611" fill="#BBB" fill-rule="nonzero" rx="1.181"/>
    </g>
    <g transform="translate(18.961 419.546)">
      <use fill="#000" filter="url(#img-browser-mobile-e)" xlink:href="#img-browser-mobile-f"/>
      <use fill="#FFF" xlink:href="#img-browser-mobile-f"/>
      <path fill="#888" d="M72.9268293,23.4171701 C72.9268293,26.8214626 69.9146341,28.6131955 66.902439,28.6131955 L66.902439,34.1675676 L70.1154472,36.4968203 L70.1154472,36.6759936 L66.902439,39.0052464 L66.902439,46.3513514 C69.1113821,45.2763116 70.9186992,43.1262321 72.1235772,40.7969793 L72.5252033,40.7969793 C72.5252033,46.7096979 67.304065,52.4432432 59.2715447,52.4432432 C51.8414634,52.4432432 45.2146341,47.0680445 45.2146341,39.9011129 C45.2146341,33.809221 50.6365854,28.7923688 56.6609756,27.3589825 L56.8617886,27.8965024 C54.6528455,28.9715421 52.4439024,30.5841017 51.6406504,32.9133545 L61.6813008,28.9715421 L61.6813008,41.3344992 L53.4479675,44.917965 C55.6569106,47.0680445 58.2674797,47.7847377 61.2796748,47.7847377 C62.8861789,47.7847377 64.6934959,47.6055644 66.3,46.7096979 L66.3,39.0052464 L63.2878049,36.6759936 L63.2878049,36.4968203 L66.3,34.1675676 L66.3,28.6131955 C64.6934959,28.4340223 61.6813008,27.8965024 58.8699187,27.1798092 C55.6569106,26.2839428 53.2471545,25.5672496 51.4398374,25.5672496 C49.4317073,25.5672496 48.6284553,26.8214626 48.6284553,27.5381558 C48.6284553,28.6131955 49.2308943,28.9715421 49.6325203,29.3298887 L49.4317073,29.6882353 C48.6284553,29.3298887 46.4195122,28.4340223 46.4195122,25.7464229 C46.4195122,22.7004769 49.2308943,20.0128776 53.2471545,20.0128776 C55.2552846,20.0128776 57.6650407,20.7295707 60.2756098,21.6254372 C62.4845528,22.3421304 65.496748,23.0588235 66.902439,23.0588235 C68.7097561,23.0588235 69.3121951,21.9837838 69.3121951,21.2670906 C69.3121951,20.0128776 67.9065041,19.4753577 66.099187,19.4753577 L66.099187,18.9378378 C69.1113821,18.9378378 72.9268293,19.8337043 72.9268293,23.4171701 Z M55.4560976,43.1262321 L55.4560976,32.0174881 L51.2390244,33.6300477 C50.8373984,34.7050874 50.8373984,36.1384738 50.8373984,37.3926868 C50.8373984,40.4386328 51.6406504,42.5887122 53.0463415,44.2012719 L55.4560976,43.1262321 Z"/>
      <rect width="128.351" height="5.827" x="132.727" y="30.548" fill="#D6D6D6" fill-rule="nonzero" rx="1.181"/>
      <rect width="128.351" height="5.827" x="132.727" y="42.202" fill="#D6D6D6" fill-rule="nonzero" rx="1.181"/>
      <rect width="99.18" height="5.827" x="132.727" y="53.857" fill="#D6D6D6" fill-rule="nonzero" rx="1.181"/>
      <rect width="100.639" height="7.284" x="132.727" y="11.611" fill="#BBB" fill-rule="nonzero" rx="1.181"/>
    </g>
    <rect width="58.341" height="7.284" x="18.961" y="93.232" fill="#BBB" fill-rule="nonzero" rx="1.181"/>
    <rect width="87.512" height="7.284" x="18.961" y="304.462" fill="#BBB" fill-rule="nonzero" rx="1.181"/>
    <g transform="translate(18.961 112.17)">
      <use fill="#000" filter="url(#img-browser-mobile-g)" xlink:href="#img-browser-mobile-h"/>
      <use fill="#FFF" xlink:href="#img-browser-mobile-h"/>
      <path fill="#888" fill-rule="nonzero" d="M15.8320204,30.526664 C7.08823699,30.526664 0,23.6930375 0,15.263332 C0,6.8336265 7.08823699,0 15.8320204,0 C24.5758039,0 31.6640409,6.8336265 31.6640409,15.263332 C31.6640409,23.6930375 24.5758039,30.526664 15.8320204,30.526664 Z M26.3919781,15.263332 C26.3586958,14.3856909 25.7938453,13.60874 24.9494725,13.279168 C24.1050996,12.949596 23.1386889,13.1288715 22.481469,13.7369988 C20.6804524,12.5567081 18.563366,11.9046355 16.3861412,11.859609 L17.4152225,7.09744937 L20.8032749,7.78429931 C20.8864763,8.52992824 21.5192024,9.10682678 22.2960473,9.14535935 C23.0728921,9.18389192 23.7636888,8.67264191 23.9258238,7.93918201 C24.0879589,7.20572211 23.6733942,6.46736497 22.9477535,6.19719738 C22.2221127,5.9270298 21.4003918,6.20509817 21.0090911,6.85323606 L17.1302461,6.1053328 C17.0021091,6.07823207 16.8680514,6.10171469 16.7579929,6.17053966 C16.6479345,6.23936463 16.5710364,6.34780296 16.5444614,6.47165276 L15.3728918,11.768029 C13.1688876,11.8000625 11.0226836,12.4526286 9.19840387,13.6454188 C8.5314625,13.0404363 7.55694578,12.8720832 6.71360485,13.216156 C5.87026391,13.5602288 5.31713135,14.3518442 5.30324089,15.2345978 C5.28935043,16.1173513 5.81732146,16.9247782 6.64944858,17.2933551 C6.63162283,17.5168875 6.63162283,17.7414094 6.64944858,17.9649418 C6.64944858,21.3839281 10.7816059,24.1618545 15.8795165,24.1618545 C20.9774271,24.1618545 25.1095844,21.3839281 25.1095844,17.9649418 C25.1274102,17.7414094 25.1274102,17.5168875 25.1095844,17.2933551 C25.90693,16.9112845 26.4057535,16.1216494 26.3919781,15.263332 Z M10.5599576,16.7896652 C10.5599576,15.9466946 11.2687813,15.263332 12.1431597,15.263332 C13.017538,15.263332 13.7263617,15.9466946 13.7263617,16.7896652 C13.7263617,17.6326357 13.017538,18.3159984 12.1431597,18.3159984 C11.7232684,18.3159984 11.3205748,18.1551887 11.0236668,17.8689457 C10.7267588,17.5827027 10.5599576,17.1944739 10.5599576,16.7896652 Z M19.7583615,20.9870815 C18.6351161,21.8031421 17.2531263,22.2184896 15.8478525,22.162358 C14.4425786,22.2184896 13.0605888,21.8031421 11.9373434,20.9870815 C11.7978616,20.8232362 11.8100437,20.5841073 11.9655077,20.4342275 C12.1209718,20.2843477 12.3690103,20.2726033 12.5389602,20.4070749 C13.4908283,21.0801865 14.6527212,21.419465 15.8320204,21.3686648 C17.0127713,21.4305703 18.1800771,21.1021113 19.1409127,20.4376015 C19.2540374,20.3312668 19.4174115,20.2911929 19.5694936,20.3324754 C19.7215756,20.3737578 19.8392607,20.4901248 19.878218,20.637742 C19.9171753,20.7853592 19.8714862,20.9418001 19.7583615,21.0481348 L19.7583615,20.9870815 Z M19.4733851,18.3770517 C18.5990068,18.3770517 17.8901831,17.6936891 17.8901831,16.8507185 C17.8901831,16.007748 18.5990068,15.3243853 19.4733851,15.3243853 C20.3477635,15.3243853 21.0565872,16.007748 21.0565872,16.8507185 C21.073967,17.268662 20.912676,17.675169 20.61041,17.9752333 C20.308144,18.2752975 19.8913915,18.4426236 19.4575531,18.438105 L19.4733851,18.3770517 Z" transform="translate(21.11 21.134)"/>
      <g transform="translate(0 84.535)">
        <use fill="#000" filter="url(#img-browser-mobile-i)" xlink:href="#img-browser-mobile-j"/>
        <use fill="#FFF" xlink:href="#img-browser-mobile-j"/>
        <path fill="#888" d="M31.5464108,6.51846658 C31.4055604,9.6894825 29.2604126,14.0315952 25.1091477,19.5436775 C20.8181242,25.2992217 17.1876781,28.1783088 14.2185374,28.1783088 C12.3780195,28.1783088 10.8213861,26.4259843 9.54972914,22.9198326 C8.70062331,19.7059854 7.85188144,16.4917625 7.00241165,13.2775396 C6.05794974,9.77289074 5.04542834,8.01868774 3.96157186,8.01868774 C3.7253654,8.01868774 2.89882474,8.53153569 1.48413363,9.55272305 L-7.27909014e-05,7.57872806 C1.55765244,6.16642369 3.09390435,4.75411933 4.60577131,3.33918497 C6.68322356,1.48692093 8.24386042,0.512321957 9.2829505,0.413885207 C11.7381875,0.170047608 13.2500545,1.9032107 13.8174595,5.61262305 C14.4310868,9.61509137 14.8558217,12.1041886 15.0938479,13.0784118 C15.8024673,16.3997129 16.5820579,18.0584848 17.4322555,18.0584848 C18.092105,18.0584848 19.0849729,16.981692 20.4083114,14.8262277 C21.7291023,12.672642 22.4373577,11.0341586 22.5327138,9.90777163 C22.7219701,8.04836905 22.0137147,7.11735276 20.4083114,7.11735276 C19.6527419,7.11735276 18.8735153,7.29656776 18.0720875,7.65124063 C19.6236255,2.40741726 22.587307,-0.139539729 26.9609481,0.00586111948 C30.2041466,0.103922157 31.7334834,2.27479064 31.5464108,6.51846658" transform="translate(21.11 22.308)"/>
      </g>
      <g transform="translate(91.474)">
        <use fill="#000" filter="url(#img-browser-mobile-k)" xlink:href="#img-browser-mobile-l"/>
        <use fill="#FFF" xlink:href="#img-browser-mobile-l"/>
        <g transform="translate(21.11 21.134)">
          <mask id="img-browser-mobile-n" fill="#fff">
            <use xlink:href="#img-browser-mobile-m"/>
          </mask>
          <path fill="#888" d="M25.1201956,13.4899327 C20.0324628,10.5769985 11.6401726,10.3091633 6.78332339,11.7302886 C6.00340791,11.9585117 5.17863504,11.5340457 4.94228559,10.7821449 C4.70593614,10.0298807 5.14584014,9.23509719 5.92632105,9.00669233 C11.5016424,7.37496946 20.7699711,7.69022995 26.6270647,11.041985 C27.3287625,11.443556 27.5587037,12.3170183 27.1427362,12.992239 C26.7265803,13.66855 25.8200086,13.8915037 25.1201956,13.4899327 M24.9535825,17.8043679 C24.5967966,18.3627514 23.8393098,18.5379163 23.2608756,18.1950365 C19.0192135,15.6814928 12.5512677,14.9532138 7.53308265,16.4217644 C6.88227352,16.6114658 6.19489997,16.2576836 5.99737666,15.6315235 C5.80136117,15.0040916 6.16832479,14.3426805 6.81800306,14.1518889 C12.5505138,12.4747394 19.6768078,13.2869667 24.5487351,16.1733718 C25.1271693,16.5167968 25.3092375,17.2472562 24.9535825,17.8043679 M23.022076,21.9478174 C22.7386074,22.3962686 22.1328442,22.5367276 21.6695691,22.2634413 C17.9629915,20.0795129 13.2980113,19.5863619 7.80392328,20.7961626 C7.2743045,20.9133632 6.74675897,20.5933784 6.62594557,20.083147 C6.50475522,19.5727339 6.83515441,19.0639562 7.36590405,18.9474824 C13.3783023,17.6224798 18.5355829,18.1926743 22.6958233,20.643711 C23.1596638,20.9166339 23.305733,21.5008198 23.022076,21.9478174 M15.7836385,5.45119021e-05 C7.06679195,5.45119021e-05 5.65429324e-05,6.81277006 5.65429324e-05,15.2165063 C5.65429324e-05,23.621151 7.06679195,30.4335031 15.7836385,30.4335031 C24.5008621,30.4335031 31.5672205,23.621151 31.5672205,15.2165063 C31.5672205,6.81277006 24.5008621,5.45119021e-05 15.7836385,5.45119021e-05" mask="url(#img-browser-mobile-n)"/>
        </g>
      </g>
      <g transform="translate(91.474 84.535)">
        <use fill="#000" filter="url(#img-browser-mobile-o)" xlink:href="#img-browser-mobile-p"/>
        <use fill="#FFF" xlink:href="#img-browser-mobile-p"/>
        <path fill="#888" fill-rule="nonzero" d="M9.06718594,0 L18.1359123,5.7237495 L9.06718594,11.447499 L-5.5067062e-13,5.7237495 L9.06718594,0 Z M27.2030983,0 L36.2702842,5.7237495 L27.2030983,11.447499 L18.1359123,5.7237495 L27.2030983,0 Z M-5.5067062e-13,17.1712485 L9.06718594,11.447499 L18.1359123,17.1712485 L9.06718594,22.894998 L-5.5067062e-13,17.1712485 Z M27.2030983,11.447499 L36.2702842,17.1712485 L27.2030983,22.894998 L18.1359123,17.1712485 L27.2030983,11.447499 Z M9.06718594,24.8029145 L18.1359123,19.079165 L27.2030983,24.8029145 L18.1359123,30.526664 L9.06718594,24.8029145 Z" transform="translate(18.764 22.308)"/>
      </g>
      <g transform="translate(182.948)">
        <use fill="#000" filter="url(#img-browser-mobile-q)" xlink:href="#img-browser-mobile-r"/>
        <use fill="#FFF" xlink:href="#img-browser-mobile-r"/>
        <path fill="#888" d="M36.9363864,21.1942992 C41.2347799,21.1942992 41.7736969,21.2118293 43.4618175,21.2859396 C45.1464827,21.3598685 46.2969428,21.6173202 47.3037211,21.9937955 C48.344488,22.3829047 49.2271231,22.903611 50.1069939,23.750197 C50.9869276,24.5968435 51.5280434,25.4460892 51.9325138,26.4474242 C52.3237909,27.4161169 52.5913646,28.523056 52.6682002,30.1439917 C52.7452242,31.768252 52.7634436,32.2868426 52.7634436,36.4225708 C52.7634436,40.5583595 52.7452242,41.0769501 52.6682002,42.7012105 C52.5913646,44.3220856 52.3237909,45.4290852 51.9325138,46.3977174 C51.5280434,47.3991129 50.9869276,48.2483587 50.1069939,49.0949447 C49.2271231,49.9415911 48.344488,50.462237 47.3037211,50.851467 C46.2969428,51.227882 45.1464827,51.4853336 43.4618175,51.559323 C41.7736969,51.6333728 41.2347799,51.6509029 36.9363864,51.6509029 C32.6380557,51.6509029 32.0990131,51.6333728 30.4109553,51.559323 C28.7262901,51.4853336 27.57583,51.227882 26.5690517,50.851467 C25.5283476,50.462237 24.6456497,49.9415911 23.7657789,49.0949447 C22.8858452,48.2483587 22.3447294,47.3990525 21.9402589,46.3977174 C21.5489819,45.4290852 21.281471,44.3220856 21.2045726,42.7012105 C21.1275486,41.0769501 21.109392,40.5583595 21.109392,36.4225708 C21.109392,32.2867821 21.1275486,31.768252 21.2045726,30.1439917 C21.281471,28.523056 21.5489819,27.4161169 21.9402589,26.4474242 C22.3447294,25.4460892 22.8858452,24.5968435 23.7657789,23.750197 C24.6456497,22.903611 25.5283476,22.3829047 26.5690517,21.9937955 C27.57583,21.6173202 28.7262901,21.3598685 30.4109553,21.2859396 C32.0990131,21.2118293 32.6380557,21.1942992 36.9363864,21.1942992 Z M36.9363864,23.9381325 C32.7103678,23.9381325 32.2098372,23.9536074 30.5408784,24.0268713 C28.9978218,24.0946345 28.15973,24.3427165 27.6020282,24.551265 C26.8633262,24.8275162 26.336032,25.1575064 25.7822254,25.6904234 C25.2284188,26.2232799 24.8853917,26.7305666 24.5982793,27.4413845 C24.3815942,27.9779888 24.1237584,28.7843159 24.0533311,30.2690603 C23.9771866,31.8748233 23.9611033,32.3564796 23.9611033,36.4225708 C23.9611033,40.4887225 23.9771866,40.9703788 24.0533311,42.5761418 C24.1237584,44.0608862 24.3815942,44.8672133 24.5982793,45.4038176 C24.8853917,46.1145751 25.2284188,46.6219222 25.7822254,47.1547787 C26.336032,47.6876957 26.8633262,48.0176859 27.6020282,48.2939371 C28.15973,48.5024251 28.9978218,48.7505676 30.5409412,48.8182703 C32.2095859,48.8915343 32.7100537,48.9070697 36.9363864,48.9070697 C41.1627191,48.9070697 41.6631869,48.8915343 43.3318316,48.8182703 C44.874951,48.7505676 45.71298,48.5024251 46.2706818,48.2939371 C47.0094466,48.0176859 47.5367408,47.6876957 48.0905474,47.1547787 C48.644354,46.6219222 48.9873183,46.1145751 49.2744935,45.4038176 C49.4911786,44.8672133 49.7490144,44.0608862 49.8194417,42.5760814 C49.8955234,40.9703788 49.9116695,40.4887225 49.9116695,36.4225708 C49.9116695,32.3564796 49.8955234,31.8748233 49.8194417,30.2690603 C49.7490144,28.7843159 49.4911786,27.9779888 49.2744935,27.4413845 C48.9873183,26.7305666 48.644354,26.2232799 48.0905474,25.690363 C47.5367408,25.1575064 47.0094466,24.8275162 46.2706818,24.551265 C45.71298,24.3427165 44.874951,24.0946345 43.3318316,24.0268713 C41.6629356,23.9536074 41.162405,23.9381325 36.9363864,23.9381325 Z M36.9363864,41.4987017 C39.8500436,41.4987017 42.2120931,39.2260067 42.2120931,36.4225708 C42.2120931,33.619135 39.8500436,31.3465004 36.9363864,31.3465004 C34.0227292,31.3465004 31.6606797,33.619135 31.6606797,36.4225708 C31.6606797,39.2260067 34.0227292,41.4987017 36.9363864,41.4987017 Z M36.9363864,28.6026672 C41.4250155,28.6026672 45.0637415,32.103743 45.0637415,36.4225708 C45.0637415,40.7414591 41.4250155,44.242535 36.9363864,44.242535 C32.4477573,44.242535 28.8089684,40.7414591 28.8089684,36.4225708 C28.8089684,32.103743 32.4477573,28.6026672 36.9363864,28.6026672 Z M47.2841258,28.293701 C47.2841258,29.3029549 46.4338458,30.1210695 45.3849116,30.1210695 C44.3359775,30.1210695 43.4856346,29.3029549 43.4856346,28.293701 C43.4856346,27.2844472 44.3359775,26.4663326 45.3849116,26.4663326 C46.4338458,26.4663326 47.2841258,27.2844472 47.2841258,28.293701 Z"/>
      </g>
      <g transform="translate(182.948 84.535)">
        <use fill="#000" filter="url(#img-browser-mobile-s)" xlink:href="#img-browser-mobile-t"/>
        <use fill="#FFF" xlink:href="#img-browser-mobile-t"/>
        <path fill="#888" fill-rule="nonzero" d="M6.83159717,19.2926286 C6.83159717,21.0442611 5.33071597,22.4751722 3.49343037,22.4751722 C1.65614477,22.4751722 0.155263572,21.0442611 0.155263572,19.2926286 C0.155263572,17.5409961 1.65614477,16.110085 3.49343037,16.110085 L6.83159717,16.110085 L6.83159717,19.2926286 Z M8.5136192,19.2926286 C8.5136192,17.5409961 10.0145004,16.110085 11.851786,16.110085 C13.6890716,16.110085 15.1899528,17.5409961 15.1899528,19.2926286 L15.1899528,27.261323 C15.1899528,29.0129555 13.6890716,30.4438666 11.851786,30.4438666 C10.0145004,30.4438666 8.5136192,29.0129555 8.5136192,27.261323 L8.5136192,19.2926286 Z M11.851786,6.51311247 C10.0145004,6.51311247 8.5136192,5.08220139 8.5136192,3.33056888 C8.5136192,1.57893636 10.0145004,0.148025283 11.851786,0.148025283 C13.6890716,0.148025283 15.1899528,1.57893636 15.1899528,3.33056888 L15.1899528,6.51311247 L11.851786,6.51311247 Z M11.851786,8.1167197 C13.6890716,8.1167197 15.1899528,9.54763078 15.1899528,11.2992633 C15.1899528,13.0508958 13.6890716,14.4818069 11.851786,14.4818069 L3.49343037,14.4818069 C1.65614477,14.4818069 0.155263572,13.0508958 0.155263572,11.2992633 C0.155263572,9.54763078 1.65614477,8.1167197 3.49343037,8.1167197 L11.851786,8.1167197 Z M25.2562077,11.2992633 C25.2562077,9.54763078 26.7570889,8.1167197 28.5943745,8.1167197 C30.4316601,8.1167197 31.9325413,9.54763078 31.9325413,11.2992633 C31.9325413,13.0508958 30.4316601,14.4818069 28.5943745,14.4818069 L25.2562077,14.4818069 L25.2562077,11.2992633 Z M23.5741857,11.2992633 C23.5741857,13.0508958 22.0733045,14.4818069 20.2360189,14.4818069 C18.3987333,14.4818069 16.8978521,13.0508958 16.8978521,11.2992633 L16.8978521,3.33056888 C16.8978521,1.57893636 18.3987333,0.148025283 20.2360189,0.148025283 C22.0733045,0.148025283 23.5741857,1.57893636 23.5741857,3.33056888 L23.5741857,11.2992633 Z M20.2360189,24.0787794 C22.0733045,24.0787794 23.5741857,25.5096905 23.5741857,27.261323 C23.5741857,29.0129555 22.0733045,30.4438666 20.2360189,30.4438666 C18.3987333,30.4438666 16.8978521,29.0129555 16.8978521,27.261323 L16.8978521,24.0787794 L20.2360189,24.0787794 Z M20.2360189,22.4751722 C18.3987333,22.4751722 16.8978521,21.0442611 16.8978521,19.2926286 C16.8978521,17.5409961 18.3987333,16.110085 20.2360189,16.110085 L28.5943745,16.110085 C30.4316601,16.110085 31.9325413,17.5409961 31.9325413,19.2926286 C31.9325413,21.0442611 30.4316601,22.4751722 28.5943745,22.4751722 L20.2360189,22.4751722 Z" transform="translate(20.42 21.851)"/>
      </g>
    </g>
    <path fill="#2C2831" fill-rule="nonzero" d="M5.90489992,0 L293.0951,-8.8817842e-16 C296.356286,-1.4872486e-15 299,2.64371375 299,5.90489992 L299,29.1351351 L0,29.1351351 L0,5.90489992 C-3.99380121e-16,2.64371375 2.64371375,-1.17728666e-15 5.90489992,-1.77635684e-15 Z"/>
    <path fill="#E1E1E2" fill-rule="nonzero" d="M0,514.235135 L299,514.235135 L299,533.0951 C299,536.356286 296.356286,539 293.0951,539 L5.90489992,539 C2.64371375,539 2.17573696e-15,536.356286 1.77635684e-15,533.0951 L0,514.235135 Z"/>
    <g transform="translate(0 29.135)">
      <rect width="299" height="40.789" fill="#E1E1E2" fill-rule="nonzero"/>
      <g transform="translate(11.668 5.827)">
        <use fill="#FFF" xlink:href="#img-browser-mobile-u"/>
        <rect width="116.683" height="7.284" x="13.127" y="11.654" fill="#BBB" fill-rule="nonzero" rx="1.181"/>
      </g>
      <rect width="16.044" height="16.024" x="271.288" y="14.568" fill="#BEBEBF" fill-rule="nonzero" rx="2.362"/>
    </g>
  </g>
</svg>
