<?xml version="1.0" encoding="utf-8"?>
<!-- Generator: Adobe Illustrator 23.1.1, SVG Export Plug-In . SVG Version: 6.00 Build 0)  -->
<svg version="1.1" id="Layer_1" xmlns="http://www.w3.org/2000/svg" xmlns:xlink="http://www.w3.org/1999/xlink" x="0px" y="0px"
	 viewBox="0 0 16 16" style="enable-background:new 0 0 16 16;" xml:space="preserve">
<style type="text/css">
	.st0{fill:#0060DF;}
</style>
<path class="st0" d="M12,0H4C2.9,0,2,0.9,2,2v2c0,0.6,0.4,1,1,1s1-0.4,1-1V2.5C4,2.2,4.2,2,4.5,2h7C11.8,2,12,2.2,12,2.5v10
	c0,0.3-0.2,0.5-0.5,0.5h-7C4.2,13,4,12.8,4,12.5V11c0-0.6-0.4-1-1-1s-1,0.4-1,1v3c0,1.1,0.9,2,2,2h8c1.1,0,2-0.9,2-2V2
	C14,0.9,13.1,0,12,0z M9,15H7v-1h2V15z"/>
<path class="st0" d="M5.1,10.1c-0.2,0.2-0.2,0.5,0,0.7s0.5,0.2,0.7,0c0,0,0,0,0,0l3-3C9,7.7,9,7.3,8.9,7.1c0,0,0,0,0,0l-3-3
	C5.7,4,5.3,4,5.1,4.2C5,4.4,5,4.7,5.1,4.9L7.3,7H0.5C0.2,7,0,7.2,0,7.5S0.2,8,0.5,8h6.8L5.1,10.1z"/>
</svg>
